<svg xmlns="http://www.w3.org/2000/svg" viewBox="0 0 466.95 74.8"><g id="Warstwa_2" data-name="Warstwa 2"><g id="Warstwa_1-2" data-name="Warstwa 1"><path d="M1.2,30.8h32L32,38.48H0Z" fill="#559e7b"/><path d="M40.8,74.8l9.12-57.6h8.4l-1.2,7.6h.64a12.18,12.18,0,0,1,5-6.2,15.35,15.35,0,0,1,8.32-2.2A13.39,13.39,0,0,1,77,17.64a10.7,10.7,0,0,1,4.16,3.52,13.77,13.77,0,0,1,2.2,5.44,19.85,19.85,0,0,1,0,7l-1.76,11q-1.36,8.16-6,12.76A15.93,15.93,0,0,1,63.92,62a12,12,0,0,1-7.6-2.2,8.31,8.31,0,0,1-3.12-6.2h-.64s0,.35-.08.88-.11,1.17-.16,1.92-.13,1.55-.24,2.4-.21,1.65-.32,2.4L49.6,74.8ZM61.92,54.32a10.52,10.52,0,0,0,7.32-2.64,11.74,11.74,0,0,0,3.64-7.12l1.68-10.8q.72-4.56-1.36-7.16T66.72,24a10.08,10.08,0,0,0-7,2.64,11.74,11.74,0,0,0-3.64,7.12L54.32,44.64q-.72,4.39,1.36,7A7.47,7.47,0,0,0,61.92,54.32Z" fill="#559e7b"/><path d="M92.72,61.2l7-44h8.24l-1.2,7.6h.64a12.08,12.08,0,0,1,5.12-6.2A15.89,15.89,0,0,1,121,16.4q7,0,10.24,4.44t2.08,12L132.8,36h-9l.4-2.24q.89-4.63-1.28-7.28t-6.48-2.64a10,10,0,0,0-7,2.6,12.1,12.1,0,0,0-3.64,7l-4.4,27.76Z" fill="#559e7b"/><path d="M156.4,62A20.84,20.84,0,0,1,149,60.8a13.21,13.21,0,0,1-5.24-3.44A12.33,12.33,0,0,1,141,52a17,17,0,0,1-.16-7l1.84-11.52a21.32,21.32,0,0,1,2.4-7.08A17.89,17.89,0,0,1,149.56,21a20.45,20.45,0,0,1,6.32-3.4,24.26,24.26,0,0,1,7.8-1.2A20.58,20.58,0,0,1,171,17.6,13.35,13.35,0,0,1,176.2,21a12.7,12.7,0,0,1,2.88,5.4,16.62,16.62,0,0,1,.2,7L178,41.52H149.92l-.48,3.12q-.72,4.8,1.44,7.48t6.72,2.68a15.18,15.18,0,0,0,6-1.12,9.45,9.45,0,0,0,4.08-3.12h8.56a16.87,16.87,0,0,1-3.08,4.68,19.58,19.58,0,0,1-4.52,3.6A23.41,23.41,0,0,1,163,61.16,25.15,25.15,0,0,1,156.4,62Zm14-26.8.32-1.76c.58-3.09.13-5.51-1.36-7.24s-3.79-2.6-6.88-2.6A10.69,10.69,0,0,0,155,26.2a12.52,12.52,0,0,0-3.76,7.24L151,35.2Z" fill="#559e7b"/><path d="M192.56,30.8h32v8h-32Z"/><path d="M249.52,21.84V15.6a11.24,11.24,0,0,1,3.56-8.76q3.55-3.24,9.72-3.24h12.88v7.84h-12.8a4.85,4.85,0,0,0-3.36,1.08,4,4,0,0,0-1.2,3.16v6.16h17.36v8H258.32V61.2h-8.8V29.84H237v-8Z"/><path d="M287.68,53.2h15.84V25.12H289.68V17.2h22.4v36H325v8H287.68ZM300.32,5.12A4.86,4.86,0,0,1,301.8,1.4a5.52,5.52,0,0,1,4-1.4h1.92a5.55,5.55,0,0,1,4,1.4,4.89,4.89,0,0,1,1.48,3.72,4.78,4.78,0,0,1-1.48,3.68,5.74,5.74,0,0,1-4,1.36h-1.84a5.59,5.59,0,0,1-4-1.36A4.74,4.74,0,0,1,300.32,5.12Z"/><path d="M347.52,38.56,332.64,17.2h10.24L351,29.6a6.46,6.46,0,0,1,1,2,3.87,3.87,0,0,1,.33.88h.4a3.73,3.73,0,0,1,.31-.88,8.2,8.2,0,0,1,1-2l8.25-12.4h10.08l-14.8,21.28L373.44,61.2H363.19l-8.88-13.52a8.28,8.28,0,0,1-.67-1.12q-.28-.56-.45-1a7.73,7.73,0,0,1-.39-1h-.49c-.1.32-.24.67-.39,1s-.24.57-.4.92a7.82,7.82,0,0,1-.64,1.08l-9,13.52H331.68Z"/><path d="M382.07,33.44a18.8,18.8,0,0,1,1.28-7.08A14.67,14.67,0,0,1,387,21a16.6,16.6,0,0,1,5.84-3.4,23.26,23.26,0,0,1,7.68-1.2,22.81,22.81,0,0,1,7.64,1.2A16.59,16.59,0,0,1,414,21a14.55,14.55,0,0,1,3.68,5.36A18.6,18.6,0,0,1,419,33.44v8.08H390.79v3.12a10,10,0,0,0,2.6,7.36,9.6,9.6,0,0,0,7.16,2.64,15.08,15.08,0,0,0,5.84-1,6.89,6.89,0,0,0,3.6-3.12h8.64a13.8,13.8,0,0,1-2.32,4.76,15,15,0,0,1-4,3.64A18.7,18.7,0,0,1,407,61.2a25,25,0,0,1-6.44.8,22.89,22.89,0,0,1-7.64-1.2,16.46,16.46,0,0,1-5.8-3.44,15.35,15.35,0,0,1-3.72-5.4,18.23,18.23,0,0,1-1.32-7.08Zm8.72,1.68h19.52V33.44a9.62,9.62,0,0,0-2.56-7.12q-2.55-2.57-7.2-2.56a9.73,9.73,0,0,0-7.2,2.56,9.66,9.66,0,0,0-2.56,7.12Z"/><path d="M429.83,50.16H439a5.25,5.25,0,0,0,2.68,3.44,10.63,10.63,0,0,0,5.4,1.28h2.88a10.19,10.19,0,0,0,6.12-1.6,5.14,5.14,0,0,0,2.2-4.4q0-4.8-7-5.76l-6.4-.88q-7.11-1-10.52-4.12t-3.4-8.92a11.33,11.33,0,0,1,4.28-9.44q4.29-3.36,12.2-3.36h2.8q7,0,11.32,3.08a12,12,0,0,1,5.16,8.36h-9a4.89,4.89,0,0,0-2.48-3.16,9.76,9.76,0,0,0-5-1.16h-2.8a10,10,0,0,0-5.76,1.4,4.79,4.79,0,0,0-2,4.2,4.52,4.52,0,0,0,1.48,3.6,9,9,0,0,0,4.76,1.68l6.56.88q7.53,1,11,4.24T467,48.64q0,6.4-4.4,9.88T449.91,62H447q-7.35,0-12-3.16A11.76,11.76,0,0,1,429.83,50.16Z"/></g></g></svg>