<?xml version="1.0" encoding="UTF-8"?>
<svg width="350px" height="612px" viewBox="0 0 350 612" version="1.1" xmlns="http://www.w3.org/2000/svg" xmlns:xlink="http://www.w3.org/1999/xlink">
    <!-- Generator: Sketch 62 (91390) - https://sketch.com -->
    <title>Group 2</title>
    <desc>Created with Sketch.</desc>
    <g id="Page-1" stroke="none" stroke-width="1" fill="none" fill-rule="evenodd" opacity="0.293038504">
        <g id="home" transform="translate(-949.000000, -216.000000)" fill="#D8D8D8">
            <g id="Group-2" transform="translate(949.000000, 216.000000)">
                <g id="Group">
                    <ellipse id="Oval" cx="5.36238532" cy="5.37628866" rx="5.36238532" ry="5.37628866"></ellipse>
                    <ellipse id="Oval-Copy-28" cx="5.36238532" cy="109.829897" rx="5.36238532" ry="5.37628866"></ellipse>
                    <ellipse id="Oval-Copy-56" cx="5.36238532" cy="214.283505" rx="5.36238532" ry="5.37628866"></ellipse>
                    <ellipse id="Oval-Copy-7" cx="5.36238532" cy="31.4896907" rx="5.36238532" ry="5.37628866"></ellipse>
                    <ellipse id="Oval-Copy-29" cx="5.36238532" cy="135.943299" rx="5.36238532" ry="5.37628866"></ellipse>
                    <ellipse id="Oval-Copy-57" cx="5.36238532" cy="240.396907" rx="5.36238532" ry="5.37628866"></ellipse>
                    <ellipse id="Oval-Copy-14" cx="5.36238532" cy="57.6030928" rx="5.36238532" ry="5.37628866"></ellipse>
                    <ellipse id="Oval-Copy-30" cx="5.36238532" cy="162.056701" rx="5.36238532" ry="5.37628866"></ellipse>
                    <ellipse id="Oval-Copy-58" cx="5.36238532" cy="266.510309" rx="5.36238532" ry="5.37628866"></ellipse>
                    <ellipse id="Oval-Copy-21" cx="5.36238532" cy="83.7164948" rx="5.36238532" ry="5.37628866"></ellipse>
                    <ellipse id="Oval-Copy-31" cx="5.36238532" cy="188.170103" rx="5.36238532" ry="5.37628866"></ellipse>
                    <ellipse id="Oval-Copy-59" cx="5.36238532" cy="292.623711" rx="5.36238532" ry="5.37628866"></ellipse>
                    <ellipse id="Oval-Copy" cx="31.4082569" cy="5.37628866" rx="5.36238532" ry="5.37628866"></ellipse>
                    <ellipse id="Oval-Copy-32" cx="31.4082569" cy="109.829897" rx="5.36238532" ry="5.37628866"></ellipse>
                    <ellipse id="Oval-Copy-60" cx="31.4082569" cy="214.283505" rx="5.36238532" ry="5.37628866"></ellipse>
                    <ellipse id="Oval-Copy-8" cx="31.4082569" cy="31.4896907" rx="5.36238532" ry="5.37628866"></ellipse>
                    <ellipse id="Oval-Copy-33" cx="31.4082569" cy="135.943299" rx="5.36238532" ry="5.37628866"></ellipse>
                    <ellipse id="Oval-Copy-61" cx="31.4082569" cy="240.396907" rx="5.36238532" ry="5.37628866"></ellipse>
                    <ellipse id="Oval-Copy-15" cx="31.4082569" cy="57.6030928" rx="5.36238532" ry="5.37628866"></ellipse>
                    <ellipse id="Oval-Copy-34" cx="31.4082569" cy="162.056701" rx="5.36238532" ry="5.37628866"></ellipse>
                    <ellipse id="Oval-Copy-62" cx="31.4082569" cy="266.510309" rx="5.36238532" ry="5.37628866"></ellipse>
                    <ellipse id="Oval-Copy-22" cx="31.4082569" cy="83.7164948" rx="5.36238532" ry="5.37628866"></ellipse>
                    <ellipse id="Oval-Copy-35" cx="31.4082569" cy="188.170103" rx="5.36238532" ry="5.37628866"></ellipse>
                    <ellipse id="Oval-Copy-63" cx="31.4082569" cy="292.623711" rx="5.36238532" ry="5.37628866"></ellipse>
                    <ellipse id="Oval-Copy-2" cx="57.4541284" cy="5.37628866" rx="5.36238532" ry="5.37628866"></ellipse>
                    <ellipse id="Oval-Copy-36" cx="57.4541284" cy="109.829897" rx="5.36238532" ry="5.37628866"></ellipse>
                    <ellipse id="Oval-Copy-64" cx="57.4541284" cy="214.283505" rx="5.36238532" ry="5.37628866"></ellipse>
                    <ellipse id="Oval-Copy-9" cx="57.4541284" cy="31.4896907" rx="5.36238532" ry="5.37628866"></ellipse>
                    <ellipse id="Oval-Copy-37" cx="57.4541284" cy="135.943299" rx="5.36238532" ry="5.37628866"></ellipse>
                    <ellipse id="Oval-Copy-65" cx="57.4541284" cy="240.396907" rx="5.36238532" ry="5.37628866"></ellipse>
                    <ellipse id="Oval-Copy-16" cx="57.4541284" cy="57.6030928" rx="5.36238532" ry="5.37628866"></ellipse>
                    <ellipse id="Oval-Copy-38" cx="57.4541284" cy="162.056701" rx="5.36238532" ry="5.37628866"></ellipse>
                    <ellipse id="Oval-Copy-66" cx="57.4541284" cy="266.510309" rx="5.36238532" ry="5.37628866"></ellipse>
                    <ellipse id="Oval-Copy-23" cx="57.4541284" cy="83.7164948" rx="5.36238532" ry="5.37628866"></ellipse>
                    <ellipse id="Oval-Copy-39" cx="57.4541284" cy="188.170103" rx="5.36238532" ry="5.37628866"></ellipse>
                    <ellipse id="Oval-Copy-67" cx="57.4541284" cy="292.623711" rx="5.36238532" ry="5.37628866"></ellipse>
                    <ellipse id="Oval-Copy-3" cx="83.5" cy="5.37628866" rx="5.36238532" ry="5.37628866"></ellipse>
                    <ellipse id="Oval-Copy-40" cx="83.5" cy="109.829897" rx="5.36238532" ry="5.37628866"></ellipse>
                    <ellipse id="Oval-Copy-68" cx="83.5" cy="214.283505" rx="5.36238532" ry="5.37628866"></ellipse>
                    <ellipse id="Oval-Copy-10" cx="83.5" cy="31.4896907" rx="5.36238532" ry="5.37628866"></ellipse>
                    <ellipse id="Oval-Copy-41" cx="83.5" cy="135.943299" rx="5.36238532" ry="5.37628866"></ellipse>
                    <ellipse id="Oval-Copy-69" cx="83.5" cy="240.396907" rx="5.36238532" ry="5.37628866"></ellipse>
                    <ellipse id="Oval-Copy-17" cx="83.5" cy="57.6030928" rx="5.36238532" ry="5.37628866"></ellipse>
                    <ellipse id="Oval-Copy-42" cx="83.5" cy="162.056701" rx="5.36238532" ry="5.37628866"></ellipse>
                    <ellipse id="Oval-Copy-70" cx="83.5" cy="266.510309" rx="5.36238532" ry="5.37628866"></ellipse>
                    <ellipse id="Oval-Copy-24" cx="83.5" cy="83.7164948" rx="5.36238532" ry="5.37628866"></ellipse>
                    <ellipse id="Oval-Copy-43" cx="83.5" cy="188.170103" rx="5.36238532" ry="5.37628866"></ellipse>
                    <ellipse id="Oval-Copy-71" cx="83.5" cy="292.623711" rx="5.36238532" ry="5.37628866"></ellipse>
                    <ellipse id="Oval-Copy-4" cx="109.545872" cy="5.37628866" rx="5.36238532" ry="5.37628866"></ellipse>
                    <ellipse id="Oval-Copy-44" cx="109.545872" cy="109.829897" rx="5.36238532" ry="5.37628866"></ellipse>
                    <ellipse id="Oval-Copy-72" cx="109.545872" cy="214.283505" rx="5.36238532" ry="5.37628866"></ellipse>
                    <ellipse id="Oval-Copy-11" cx="109.545872" cy="31.4896907" rx="5.36238532" ry="5.37628866"></ellipse>
                    <ellipse id="Oval-Copy-45" cx="109.545872" cy="135.943299" rx="5.36238532" ry="5.37628866"></ellipse>
                    <ellipse id="Oval-Copy-73" cx="109.545872" cy="240.396907" rx="5.36238532" ry="5.37628866"></ellipse>
                    <ellipse id="Oval-Copy-18" cx="109.545872" cy="57.6030928" rx="5.36238532" ry="5.37628866"></ellipse>
                    <ellipse id="Oval-Copy-46" cx="109.545872" cy="162.056701" rx="5.36238532" ry="5.37628866"></ellipse>
                    <ellipse id="Oval-Copy-74" cx="109.545872" cy="266.510309" rx="5.36238532" ry="5.37628866"></ellipse>
                    <ellipse id="Oval-Copy-25" cx="109.545872" cy="83.7164948" rx="5.36238532" ry="5.37628866"></ellipse>
                    <ellipse id="Oval-Copy-47" cx="109.545872" cy="188.170103" rx="5.36238532" ry="5.37628866"></ellipse>
                    <ellipse id="Oval-Copy-75" cx="109.545872" cy="292.623711" rx="5.36238532" ry="5.37628866"></ellipse>
                    <ellipse id="Oval-Copy-5" cx="135.591743" cy="5.37628866" rx="5.36238532" ry="5.37628866"></ellipse>
                    <ellipse id="Oval-Copy-48" cx="135.591743" cy="109.829897" rx="5.36238532" ry="5.37628866"></ellipse>
                    <ellipse id="Oval-Copy-76" cx="135.591743" cy="214.283505" rx="5.36238532" ry="5.37628866"></ellipse>
                    <ellipse id="Oval-Copy-12" cx="135.591743" cy="31.4896907" rx="5.36238532" ry="5.37628866"></ellipse>
                    <ellipse id="Oval-Copy-49" cx="135.591743" cy="135.943299" rx="5.36238532" ry="5.37628866"></ellipse>
                    <ellipse id="Oval-Copy-77" cx="135.591743" cy="240.396907" rx="5.36238532" ry="5.37628866"></ellipse>
                    <ellipse id="Oval-Copy-19" cx="135.591743" cy="57.6030928" rx="5.36238532" ry="5.37628866"></ellipse>
                    <ellipse id="Oval-Copy-50" cx="135.591743" cy="162.056701" rx="5.36238532" ry="5.37628866"></ellipse>
                    <ellipse id="Oval-Copy-78" cx="135.591743" cy="266.510309" rx="5.36238532" ry="5.37628866"></ellipse>
                    <ellipse id="Oval-Copy-26" cx="135.591743" cy="83.7164948" rx="5.36238532" ry="5.37628866"></ellipse>
                    <ellipse id="Oval-Copy-51" cx="135.591743" cy="188.170103" rx="5.36238532" ry="5.37628866"></ellipse>
                    <ellipse id="Oval-Copy-79" cx="135.591743" cy="292.623711" rx="5.36238532" ry="5.37628866"></ellipse>
                    <ellipse id="Oval-Copy-6" cx="161.637615" cy="5.37628866" rx="5.36238532" ry="5.37628866"></ellipse>
                    <ellipse id="Oval-Copy-52" cx="161.637615" cy="109.829897" rx="5.36238532" ry="5.37628866"></ellipse>
                    <ellipse id="Oval-Copy-80" cx="161.637615" cy="214.283505" rx="5.36238532" ry="5.37628866"></ellipse>
                    <ellipse id="Oval-Copy-13" cx="161.637615" cy="31.4896907" rx="5.36238532" ry="5.37628866"></ellipse>
                    <ellipse id="Oval-Copy-53" cx="161.637615" cy="135.943299" rx="5.36238532" ry="5.37628866"></ellipse>
                    <ellipse id="Oval-Copy-81" cx="161.637615" cy="240.396907" rx="5.36238532" ry="5.37628866"></ellipse>
                    <ellipse id="Oval-Copy-20" cx="161.637615" cy="57.6030928" rx="5.36238532" ry="5.37628866"></ellipse>
                    <ellipse id="Oval-Copy-54" cx="161.637615" cy="162.056701" rx="5.36238532" ry="5.37628866"></ellipse>
                    <ellipse id="Oval-Copy-82" cx="161.637615" cy="266.510309" rx="5.36238532" ry="5.37628866"></ellipse>
                    <ellipse id="Oval-Copy-27" cx="161.637615" cy="83.7164948" rx="5.36238532" ry="5.37628866"></ellipse>
                    <ellipse id="Oval-Copy-55" cx="161.637615" cy="188.170103" rx="5.36238532" ry="5.37628866"></ellipse>
                    <ellipse id="Oval-Copy-83" cx="161.637615" cy="292.623711" rx="5.36238532" ry="5.37628866"></ellipse>
                </g>
                <g id="Group-Copy-2" transform="translate(0.000000, 314.000000)">
                    <ellipse id="Oval" cx="5.36238532" cy="5.37628866" rx="5.36238532" ry="5.37628866"></ellipse>
                    <ellipse id="Oval-Copy-28" cx="5.36238532" cy="109.829897" rx="5.36238532" ry="5.37628866"></ellipse>
                    <ellipse id="Oval-Copy-56" cx="5.36238532" cy="214.283505" rx="5.36238532" ry="5.37628866"></ellipse>
                    <ellipse id="Oval-Copy-7" cx="5.36238532" cy="31.4896907" rx="5.36238532" ry="5.37628866"></ellipse>
                    <ellipse id="Oval-Copy-29" cx="5.36238532" cy="135.943299" rx="5.36238532" ry="5.37628866"></ellipse>
                    <ellipse id="Oval-Copy-57" cx="5.36238532" cy="240.396907" rx="5.36238532" ry="5.37628866"></ellipse>
                    <ellipse id="Oval-Copy-14" cx="5.36238532" cy="57.6030928" rx="5.36238532" ry="5.37628866"></ellipse>
                    <ellipse id="Oval-Copy-30" cx="5.36238532" cy="162.056701" rx="5.36238532" ry="5.37628866"></ellipse>
                    <ellipse id="Oval-Copy-58" cx="5.36238532" cy="266.510309" rx="5.36238532" ry="5.37628866"></ellipse>
                    <ellipse id="Oval-Copy-21" cx="5.36238532" cy="83.7164948" rx="5.36238532" ry="5.37628866"></ellipse>
                    <ellipse id="Oval-Copy-31" cx="5.36238532" cy="188.170103" rx="5.36238532" ry="5.37628866"></ellipse>
                    <ellipse id="Oval-Copy-59" cx="5.36238532" cy="292.623711" rx="5.36238532" ry="5.37628866"></ellipse>
                    <ellipse id="Oval-Copy" cx="31.4082569" cy="5.37628866" rx="5.36238532" ry="5.37628866"></ellipse>
                    <ellipse id="Oval-Copy-32" cx="31.4082569" cy="109.829897" rx="5.36238532" ry="5.37628866"></ellipse>
                    <ellipse id="Oval-Copy-60" cx="31.4082569" cy="214.283505" rx="5.36238532" ry="5.37628866"></ellipse>
                    <ellipse id="Oval-Copy-8" cx="31.4082569" cy="31.4896907" rx="5.36238532" ry="5.37628866"></ellipse>
                    <ellipse id="Oval-Copy-33" cx="31.4082569" cy="135.943299" rx="5.36238532" ry="5.37628866"></ellipse>
                    <ellipse id="Oval-Copy-61" cx="31.4082569" cy="240.396907" rx="5.36238532" ry="5.37628866"></ellipse>
                    <ellipse id="Oval-Copy-15" cx="31.4082569" cy="57.6030928" rx="5.36238532" ry="5.37628866"></ellipse>
                    <ellipse id="Oval-Copy-34" cx="31.4082569" cy="162.056701" rx="5.36238532" ry="5.37628866"></ellipse>
                    <ellipse id="Oval-Copy-62" cx="31.4082569" cy="266.510309" rx="5.36238532" ry="5.37628866"></ellipse>
                    <ellipse id="Oval-Copy-22" cx="31.4082569" cy="83.7164948" rx="5.36238532" ry="5.37628866"></ellipse>
                    <ellipse id="Oval-Copy-35" cx="31.4082569" cy="188.170103" rx="5.36238532" ry="5.37628866"></ellipse>
                    <ellipse id="Oval-Copy-63" cx="31.4082569" cy="292.623711" rx="5.36238532" ry="5.37628866"></ellipse>
                    <ellipse id="Oval-Copy-2" cx="57.4541284" cy="5.37628866" rx="5.36238532" ry="5.37628866"></ellipse>
                    <ellipse id="Oval-Copy-36" cx="57.4541284" cy="109.829897" rx="5.36238532" ry="5.37628866"></ellipse>
                    <ellipse id="Oval-Copy-64" cx="57.4541284" cy="214.283505" rx="5.36238532" ry="5.37628866"></ellipse>
                    <ellipse id="Oval-Copy-9" cx="57.4541284" cy="31.4896907" rx="5.36238532" ry="5.37628866"></ellipse>
                    <ellipse id="Oval-Copy-37" cx="57.4541284" cy="135.943299" rx="5.36238532" ry="5.37628866"></ellipse>
                    <ellipse id="Oval-Copy-65" cx="57.4541284" cy="240.396907" rx="5.36238532" ry="5.37628866"></ellipse>
                    <ellipse id="Oval-Copy-16" cx="57.4541284" cy="57.6030928" rx="5.36238532" ry="5.37628866"></ellipse>
                    <ellipse id="Oval-Copy-38" cx="57.4541284" cy="162.056701" rx="5.36238532" ry="5.37628866"></ellipse>
                    <ellipse id="Oval-Copy-66" cx="57.4541284" cy="266.510309" rx="5.36238532" ry="5.37628866"></ellipse>
                    <ellipse id="Oval-Copy-23" cx="57.4541284" cy="83.7164948" rx="5.36238532" ry="5.37628866"></ellipse>
                    <ellipse id="Oval-Copy-39" cx="57.4541284" cy="188.170103" rx="5.36238532" ry="5.37628866"></ellipse>
                    <ellipse id="Oval-Copy-67" cx="57.4541284" cy="292.623711" rx="5.36238532" ry="5.37628866"></ellipse>
                    <ellipse id="Oval-Copy-3" cx="83.5" cy="5.37628866" rx="5.36238532" ry="5.37628866"></ellipse>
                    <ellipse id="Oval-Copy-40" cx="83.5" cy="109.829897" rx="5.36238532" ry="5.37628866"></ellipse>
                    <ellipse id="Oval-Copy-68" cx="83.5" cy="214.283505" rx="5.36238532" ry="5.37628866"></ellipse>
                    <ellipse id="Oval-Copy-10" cx="83.5" cy="31.4896907" rx="5.36238532" ry="5.37628866"></ellipse>
                    <ellipse id="Oval-Copy-41" cx="83.5" cy="135.943299" rx="5.36238532" ry="5.37628866"></ellipse>
                    <ellipse id="Oval-Copy-69" cx="83.5" cy="240.396907" rx="5.36238532" ry="5.37628866"></ellipse>
                    <ellipse id="Oval-Copy-17" cx="83.5" cy="57.6030928" rx="5.36238532" ry="5.37628866"></ellipse>
                    <ellipse id="Oval-Copy-42" cx="83.5" cy="162.056701" rx="5.36238532" ry="5.37628866"></ellipse>
                    <ellipse id="Oval-Copy-70" cx="83.5" cy="266.510309" rx="5.36238532" ry="5.37628866"></ellipse>
                    <ellipse id="Oval-Copy-24" cx="83.5" cy="83.7164948" rx="5.36238532" ry="5.37628866"></ellipse>
                    <ellipse id="Oval-Copy-43" cx="83.5" cy="188.170103" rx="5.36238532" ry="5.37628866"></ellipse>
                    <ellipse id="Oval-Copy-71" cx="83.5" cy="292.623711" rx="5.36238532" ry="5.37628866"></ellipse>
                    <ellipse id="Oval-Copy-4" cx="109.545872" cy="5.37628866" rx="5.36238532" ry="5.37628866"></ellipse>
                    <ellipse id="Oval-Copy-44" cx="109.545872" cy="109.829897" rx="5.36238532" ry="5.37628866"></ellipse>
                    <ellipse id="Oval-Copy-72" cx="109.545872" cy="214.283505" rx="5.36238532" ry="5.37628866"></ellipse>
                    <ellipse id="Oval-Copy-11" cx="109.545872" cy="31.4896907" rx="5.36238532" ry="5.37628866"></ellipse>
                    <ellipse id="Oval-Copy-45" cx="109.545872" cy="135.943299" rx="5.36238532" ry="5.37628866"></ellipse>
                    <ellipse id="Oval-Copy-73" cx="109.545872" cy="240.396907" rx="5.36238532" ry="5.37628866"></ellipse>
                    <ellipse id="Oval-Copy-18" cx="109.545872" cy="57.6030928" rx="5.36238532" ry="5.37628866"></ellipse>
                    <ellipse id="Oval-Copy-46" cx="109.545872" cy="162.056701" rx="5.36238532" ry="5.37628866"></ellipse>
                    <ellipse id="Oval-Copy-74" cx="109.545872" cy="266.510309" rx="5.36238532" ry="5.37628866"></ellipse>
                    <ellipse id="Oval-Copy-25" cx="109.545872" cy="83.7164948" rx="5.36238532" ry="5.37628866"></ellipse>
                    <ellipse id="Oval-Copy-47" cx="109.545872" cy="188.170103" rx="5.36238532" ry="5.37628866"></ellipse>
                    <ellipse id="Oval-Copy-75" cx="109.545872" cy="292.623711" rx="5.36238532" ry="5.37628866"></ellipse>
                    <ellipse id="Oval-Copy-5" cx="135.591743" cy="5.37628866" rx="5.36238532" ry="5.37628866"></ellipse>
                    <ellipse id="Oval-Copy-48" cx="135.591743" cy="109.829897" rx="5.36238532" ry="5.37628866"></ellipse>
                    <ellipse id="Oval-Copy-76" cx="135.591743" cy="214.283505" rx="5.36238532" ry="5.37628866"></ellipse>
                    <ellipse id="Oval-Copy-12" cx="135.591743" cy="31.4896907" rx="5.36238532" ry="5.37628866"></ellipse>
                    <ellipse id="Oval-Copy-49" cx="135.591743" cy="135.943299" rx="5.36238532" ry="5.37628866"></ellipse>
                    <ellipse id="Oval-Copy-77" cx="135.591743" cy="240.396907" rx="5.36238532" ry="5.37628866"></ellipse>
                    <ellipse id="Oval-Copy-19" cx="135.591743" cy="57.6030928" rx="5.36238532" ry="5.37628866"></ellipse>
                    <ellipse id="Oval-Copy-50" cx="135.591743" cy="162.056701" rx="5.36238532" ry="5.37628866"></ellipse>
                    <ellipse id="Oval-Copy-78" cx="135.591743" cy="266.510309" rx="5.36238532" ry="5.37628866"></ellipse>
                    <ellipse id="Oval-Copy-26" cx="135.591743" cy="83.7164948" rx="5.36238532" ry="5.37628866"></ellipse>
                    <ellipse id="Oval-Copy-51" cx="135.591743" cy="188.170103" rx="5.36238532" ry="5.37628866"></ellipse>
                    <ellipse id="Oval-Copy-79" cx="135.591743" cy="292.623711" rx="5.36238532" ry="5.37628866"></ellipse>
                    <ellipse id="Oval-Copy-6" cx="161.637615" cy="5.37628866" rx="5.36238532" ry="5.37628866"></ellipse>
                    <ellipse id="Oval-Copy-52" cx="161.637615" cy="109.829897" rx="5.36238532" ry="5.37628866"></ellipse>
                    <ellipse id="Oval-Copy-80" cx="161.637615" cy="214.283505" rx="5.36238532" ry="5.37628866"></ellipse>
                    <ellipse id="Oval-Copy-13" cx="161.637615" cy="31.4896907" rx="5.36238532" ry="5.37628866"></ellipse>
                    <ellipse id="Oval-Copy-53" cx="161.637615" cy="135.943299" rx="5.36238532" ry="5.37628866"></ellipse>
                    <ellipse id="Oval-Copy-81" cx="161.637615" cy="240.396907" rx="5.36238532" ry="5.37628866"></ellipse>
                    <ellipse id="Oval-Copy-20" cx="161.637615" cy="57.6030928" rx="5.36238532" ry="5.37628866"></ellipse>
                    <ellipse id="Oval-Copy-54" cx="161.637615" cy="162.056701" rx="5.36238532" ry="5.37628866"></ellipse>
                    <ellipse id="Oval-Copy-82" cx="161.637615" cy="266.510309" rx="5.36238532" ry="5.37628866"></ellipse>
                    <ellipse id="Oval-Copy-27" cx="161.637615" cy="83.7164948" rx="5.36238532" ry="5.37628866"></ellipse>
                    <ellipse id="Oval-Copy-55" cx="161.637615" cy="188.170103" rx="5.36238532" ry="5.37628866"></ellipse>
                    <ellipse id="Oval-Copy-83" cx="161.637615" cy="292.623711" rx="5.36238532" ry="5.37628866"></ellipse>
                </g>
                <g id="Group-Copy" transform="translate(183.000000, 0.000000)">
                    <ellipse id="Oval" cx="5.36238532" cy="5.37628866" rx="5.36238532" ry="5.37628866"></ellipse>
                    <ellipse id="Oval-Copy-28" cx="5.36238532" cy="109.829897" rx="5.36238532" ry="5.37628866"></ellipse>
                    <ellipse id="Oval-Copy-56" cx="5.36238532" cy="214.283505" rx="5.36238532" ry="5.37628866"></ellipse>
                    <ellipse id="Oval-Copy-7" cx="5.36238532" cy="31.4896907" rx="5.36238532" ry="5.37628866"></ellipse>
                    <ellipse id="Oval-Copy-29" cx="5.36238532" cy="135.943299" rx="5.36238532" ry="5.37628866"></ellipse>
                    <ellipse id="Oval-Copy-57" cx="5.36238532" cy="240.396907" rx="5.36238532" ry="5.37628866"></ellipse>
                    <ellipse id="Oval-Copy-14" cx="5.36238532" cy="57.6030928" rx="5.36238532" ry="5.37628866"></ellipse>
                    <ellipse id="Oval-Copy-30" cx="5.36238532" cy="162.056701" rx="5.36238532" ry="5.37628866"></ellipse>
                    <ellipse id="Oval-Copy-58" cx="5.36238532" cy="266.510309" rx="5.36238532" ry="5.37628866"></ellipse>
                    <ellipse id="Oval-Copy-21" cx="5.36238532" cy="83.7164948" rx="5.36238532" ry="5.37628866"></ellipse>
                    <ellipse id="Oval-Copy-31" cx="5.36238532" cy="188.170103" rx="5.36238532" ry="5.37628866"></ellipse>
                    <ellipse id="Oval-Copy-59" cx="5.36238532" cy="292.623711" rx="5.36238532" ry="5.37628866"></ellipse>
                    <ellipse id="Oval-Copy" cx="31.4082569" cy="5.37628866" rx="5.36238532" ry="5.37628866"></ellipse>
                    <ellipse id="Oval-Copy-32" cx="31.4082569" cy="109.829897" rx="5.36238532" ry="5.37628866"></ellipse>
                    <ellipse id="Oval-Copy-60" cx="31.4082569" cy="214.283505" rx="5.36238532" ry="5.37628866"></ellipse>
                    <ellipse id="Oval-Copy-8" cx="31.4082569" cy="31.4896907" rx="5.36238532" ry="5.37628866"></ellipse>
                    <ellipse id="Oval-Copy-33" cx="31.4082569" cy="135.943299" rx="5.36238532" ry="5.37628866"></ellipse>
                    <ellipse id="Oval-Copy-61" cx="31.4082569" cy="240.396907" rx="5.36238532" ry="5.37628866"></ellipse>
                    <ellipse id="Oval-Copy-15" cx="31.4082569" cy="57.6030928" rx="5.36238532" ry="5.37628866"></ellipse>
                    <ellipse id="Oval-Copy-34" cx="31.4082569" cy="162.056701" rx="5.36238532" ry="5.37628866"></ellipse>
                    <ellipse id="Oval-Copy-62" cx="31.4082569" cy="266.510309" rx="5.36238532" ry="5.37628866"></ellipse>
                    <ellipse id="Oval-Copy-22" cx="31.4082569" cy="83.7164948" rx="5.36238532" ry="5.37628866"></ellipse>
                    <ellipse id="Oval-Copy-35" cx="31.4082569" cy="188.170103" rx="5.36238532" ry="5.37628866"></ellipse>
                    <ellipse id="Oval-Copy-63" cx="31.4082569" cy="292.623711" rx="5.36238532" ry="5.37628866"></ellipse>
                    <ellipse id="Oval-Copy-2" cx="57.4541284" cy="5.37628866" rx="5.36238532" ry="5.37628866"></ellipse>
                    <ellipse id="Oval-Copy-36" cx="57.4541284" cy="109.829897" rx="5.36238532" ry="5.37628866"></ellipse>
                    <ellipse id="Oval-Copy-64" cx="57.4541284" cy="214.283505" rx="5.36238532" ry="5.37628866"></ellipse>
                    <ellipse id="Oval-Copy-9" cx="57.4541284" cy="31.4896907" rx="5.36238532" ry="5.37628866"></ellipse>
                    <ellipse id="Oval-Copy-37" cx="57.4541284" cy="135.943299" rx="5.36238532" ry="5.37628866"></ellipse>
                    <ellipse id="Oval-Copy-65" cx="57.4541284" cy="240.396907" rx="5.36238532" ry="5.37628866"></ellipse>
                    <ellipse id="Oval-Copy-16" cx="57.4541284" cy="57.6030928" rx="5.36238532" ry="5.37628866"></ellipse>
                    <ellipse id="Oval-Copy-38" cx="57.4541284" cy="162.056701" rx="5.36238532" ry="5.37628866"></ellipse>
                    <ellipse id="Oval-Copy-66" cx="57.4541284" cy="266.510309" rx="5.36238532" ry="5.37628866"></ellipse>
                    <ellipse id="Oval-Copy-23" cx="57.4541284" cy="83.7164948" rx="5.36238532" ry="5.37628866"></ellipse>
                    <ellipse id="Oval-Copy-39" cx="57.4541284" cy="188.170103" rx="5.36238532" ry="5.37628866"></ellipse>
                    <ellipse id="Oval-Copy-67" cx="57.4541284" cy="292.623711" rx="5.36238532" ry="5.37628866"></ellipse>
                    <ellipse id="Oval-Copy-3" cx="83.5" cy="5.37628866" rx="5.36238532" ry="5.37628866"></ellipse>
                    <ellipse id="Oval-Copy-40" cx="83.5" cy="109.829897" rx="5.36238532" ry="5.37628866"></ellipse>
                    <ellipse id="Oval-Copy-68" cx="83.5" cy="214.283505" rx="5.36238532" ry="5.37628866"></ellipse>
                    <ellipse id="Oval-Copy-10" cx="83.5" cy="31.4896907" rx="5.36238532" ry="5.37628866"></ellipse>
                    <ellipse id="Oval-Copy-41" cx="83.5" cy="135.943299" rx="5.36238532" ry="5.37628866"></ellipse>
                    <ellipse id="Oval-Copy-69" cx="83.5" cy="240.396907" rx="5.36238532" ry="5.37628866"></ellipse>
                    <ellipse id="Oval-Copy-17" cx="83.5" cy="57.6030928" rx="5.36238532" ry="5.37628866"></ellipse>
                    <ellipse id="Oval-Copy-42" cx="83.5" cy="162.056701" rx="5.36238532" ry="5.37628866"></ellipse>
                    <ellipse id="Oval-Copy-70" cx="83.5" cy="266.510309" rx="5.36238532" ry="5.37628866"></ellipse>
                    <ellipse id="Oval-Copy-24" cx="83.5" cy="83.7164948" rx="5.36238532" ry="5.37628866"></ellipse>
                    <ellipse id="Oval-Copy-43" cx="83.5" cy="188.170103" rx="5.36238532" ry="5.37628866"></ellipse>
                    <ellipse id="Oval-Copy-71" cx="83.5" cy="292.623711" rx="5.36238532" ry="5.37628866"></ellipse>
                    <ellipse id="Oval-Copy-4" cx="109.545872" cy="5.37628866" rx="5.36238532" ry="5.37628866"></ellipse>
                    <ellipse id="Oval-Copy-44" cx="109.545872" cy="109.829897" rx="5.36238532" ry="5.37628866"></ellipse>
                    <ellipse id="Oval-Copy-72" cx="109.545872" cy="214.283505" rx="5.36238532" ry="5.37628866"></ellipse>
                    <ellipse id="Oval-Copy-11" cx="109.545872" cy="31.4896907" rx="5.36238532" ry="5.37628866"></ellipse>
                    <ellipse id="Oval-Copy-45" cx="109.545872" cy="135.943299" rx="5.36238532" ry="5.37628866"></ellipse>
                    <ellipse id="Oval-Copy-73" cx="109.545872" cy="240.396907" rx="5.36238532" ry="5.37628866"></ellipse>
                    <ellipse id="Oval-Copy-18" cx="109.545872" cy="57.6030928" rx="5.36238532" ry="5.37628866"></ellipse>
                    <ellipse id="Oval-Copy-46" cx="109.545872" cy="162.056701" rx="5.36238532" ry="5.37628866"></ellipse>
                    <ellipse id="Oval-Copy-74" cx="109.545872" cy="266.510309" rx="5.36238532" ry="5.37628866"></ellipse>
                    <ellipse id="Oval-Copy-25" cx="109.545872" cy="83.7164948" rx="5.36238532" ry="5.37628866"></ellipse>
                    <ellipse id="Oval-Copy-47" cx="109.545872" cy="188.170103" rx="5.36238532" ry="5.37628866"></ellipse>
                    <ellipse id="Oval-Copy-75" cx="109.545872" cy="292.623711" rx="5.36238532" ry="5.37628866"></ellipse>
                    <ellipse id="Oval-Copy-5" cx="135.591743" cy="5.37628866" rx="5.36238532" ry="5.37628866"></ellipse>
                    <ellipse id="Oval-Copy-48" cx="135.591743" cy="109.829897" rx="5.36238532" ry="5.37628866"></ellipse>
                    <ellipse id="Oval-Copy-76" cx="135.591743" cy="214.283505" rx="5.36238532" ry="5.37628866"></ellipse>
                    <ellipse id="Oval-Copy-12" cx="135.591743" cy="31.4896907" rx="5.36238532" ry="5.37628866"></ellipse>
                    <ellipse id="Oval-Copy-49" cx="135.591743" cy="135.943299" rx="5.36238532" ry="5.37628866"></ellipse>
                    <ellipse id="Oval-Copy-77" cx="135.591743" cy="240.396907" rx="5.36238532" ry="5.37628866"></ellipse>
                    <ellipse id="Oval-Copy-19" cx="135.591743" cy="57.6030928" rx="5.36238532" ry="5.37628866"></ellipse>
                    <ellipse id="Oval-Copy-50" cx="135.591743" cy="162.056701" rx="5.36238532" ry="5.37628866"></ellipse>
                    <ellipse id="Oval-Copy-78" cx="135.591743" cy="266.510309" rx="5.36238532" ry="5.37628866"></ellipse>
                    <ellipse id="Oval-Copy-26" cx="135.591743" cy="83.7164948" rx="5.36238532" ry="5.37628866"></ellipse>
                    <ellipse id="Oval-Copy-51" cx="135.591743" cy="188.170103" rx="5.36238532" ry="5.37628866"></ellipse>
                    <ellipse id="Oval-Copy-79" cx="135.591743" cy="292.623711" rx="5.36238532" ry="5.37628866"></ellipse>
                    <ellipse id="Oval-Copy-6" cx="161.637615" cy="5.37628866" rx="5.36238532" ry="5.37628866"></ellipse>
                    <ellipse id="Oval-Copy-52" cx="161.637615" cy="109.829897" rx="5.36238532" ry="5.37628866"></ellipse>
                    <ellipse id="Oval-Copy-80" cx="161.637615" cy="214.283505" rx="5.36238532" ry="5.37628866"></ellipse>
                    <ellipse id="Oval-Copy-13" cx="161.637615" cy="31.4896907" rx="5.36238532" ry="5.37628866"></ellipse>
                    <ellipse id="Oval-Copy-53" cx="161.637615" cy="135.943299" rx="5.36238532" ry="5.37628866"></ellipse>
                    <ellipse id="Oval-Copy-81" cx="161.637615" cy="240.396907" rx="5.36238532" ry="5.37628866"></ellipse>
                    <ellipse id="Oval-Copy-20" cx="161.637615" cy="57.6030928" rx="5.36238532" ry="5.37628866"></ellipse>
                    <ellipse id="Oval-Copy-54" cx="161.637615" cy="162.056701" rx="5.36238532" ry="5.37628866"></ellipse>
                    <ellipse id="Oval-Copy-82" cx="161.637615" cy="266.510309" rx="5.36238532" ry="5.37628866"></ellipse>
                    <ellipse id="Oval-Copy-27" cx="161.637615" cy="83.7164948" rx="5.36238532" ry="5.37628866"></ellipse>
                    <ellipse id="Oval-Copy-55" cx="161.637615" cy="188.170103" rx="5.36238532" ry="5.37628866"></ellipse>
                    <ellipse id="Oval-Copy-83" cx="161.637615" cy="292.623711" rx="5.36238532" ry="5.37628866"></ellipse>
                </g>
                <g id="Group-Copy-3" transform="translate(183.000000, 314.000000)">
                    <ellipse id="Oval" cx="5.36238532" cy="5.37628866" rx="5.36238532" ry="5.37628866"></ellipse>
                    <ellipse id="Oval-Copy-28" cx="5.36238532" cy="109.829897" rx="5.36238532" ry="5.37628866"></ellipse>
                    <ellipse id="Oval-Copy-56" cx="5.36238532" cy="214.283505" rx="5.36238532" ry="5.37628866"></ellipse>
                    <ellipse id="Oval-Copy-7" cx="5.36238532" cy="31.4896907" rx="5.36238532" ry="5.37628866"></ellipse>
                    <ellipse id="Oval-Copy-29" cx="5.36238532" cy="135.943299" rx="5.36238532" ry="5.37628866"></ellipse>
                    <ellipse id="Oval-Copy-57" cx="5.36238532" cy="240.396907" rx="5.36238532" ry="5.37628866"></ellipse>
                    <ellipse id="Oval-Copy-14" cx="5.36238532" cy="57.6030928" rx="5.36238532" ry="5.37628866"></ellipse>
                    <ellipse id="Oval-Copy-30" cx="5.36238532" cy="162.056701" rx="5.36238532" ry="5.37628866"></ellipse>
                    <ellipse id="Oval-Copy-58" cx="5.36238532" cy="266.510309" rx="5.36238532" ry="5.37628866"></ellipse>
                    <ellipse id="Oval-Copy-21" cx="5.36238532" cy="83.7164948" rx="5.36238532" ry="5.37628866"></ellipse>
                    <ellipse id="Oval-Copy-31" cx="5.36238532" cy="188.170103" rx="5.36238532" ry="5.37628866"></ellipse>
                    <ellipse id="Oval-Copy-59" cx="5.36238532" cy="292.623711" rx="5.36238532" ry="5.37628866"></ellipse>
                    <ellipse id="Oval-Copy" cx="31.4082569" cy="5.37628866" rx="5.36238532" ry="5.37628866"></ellipse>
                    <ellipse id="Oval-Copy-32" cx="31.4082569" cy="109.829897" rx="5.36238532" ry="5.37628866"></ellipse>
                    <ellipse id="Oval-Copy-60" cx="31.4082569" cy="214.283505" rx="5.36238532" ry="5.37628866"></ellipse>
                    <ellipse id="Oval-Copy-8" cx="31.4082569" cy="31.4896907" rx="5.36238532" ry="5.37628866"></ellipse>
                    <ellipse id="Oval-Copy-33" cx="31.4082569" cy="135.943299" rx="5.36238532" ry="5.37628866"></ellipse>
                    <ellipse id="Oval-Copy-61" cx="31.4082569" cy="240.396907" rx="5.36238532" ry="5.37628866"></ellipse>
                    <ellipse id="Oval-Copy-15" cx="31.4082569" cy="57.6030928" rx="5.36238532" ry="5.37628866"></ellipse>
                    <ellipse id="Oval-Copy-34" cx="31.4082569" cy="162.056701" rx="5.36238532" ry="5.37628866"></ellipse>
                    <ellipse id="Oval-Copy-62" cx="31.4082569" cy="266.510309" rx="5.36238532" ry="5.37628866"></ellipse>
                    <ellipse id="Oval-Copy-22" cx="31.4082569" cy="83.7164948" rx="5.36238532" ry="5.37628866"></ellipse>
                    <ellipse id="Oval-Copy-35" cx="31.4082569" cy="188.170103" rx="5.36238532" ry="5.37628866"></ellipse>
                    <ellipse id="Oval-Copy-63" cx="31.4082569" cy="292.623711" rx="5.36238532" ry="5.37628866"></ellipse>
                    <ellipse id="Oval-Copy-2" cx="57.4541284" cy="5.37628866" rx="5.36238532" ry="5.37628866"></ellipse>
                    <ellipse id="Oval-Copy-36" cx="57.4541284" cy="109.829897" rx="5.36238532" ry="5.37628866"></ellipse>
                    <ellipse id="Oval-Copy-64" cx="57.4541284" cy="214.283505" rx="5.36238532" ry="5.37628866"></ellipse>
                    <ellipse id="Oval-Copy-9" cx="57.4541284" cy="31.4896907" rx="5.36238532" ry="5.37628866"></ellipse>
                    <ellipse id="Oval-Copy-37" cx="57.4541284" cy="135.943299" rx="5.36238532" ry="5.37628866"></ellipse>
                    <ellipse id="Oval-Copy-65" cx="57.4541284" cy="240.396907" rx="5.36238532" ry="5.37628866"></ellipse>
                    <ellipse id="Oval-Copy-16" cx="57.4541284" cy="57.6030928" rx="5.36238532" ry="5.37628866"></ellipse>
                    <ellipse id="Oval-Copy-38" cx="57.4541284" cy="162.056701" rx="5.36238532" ry="5.37628866"></ellipse>
                    <ellipse id="Oval-Copy-66" cx="57.4541284" cy="266.510309" rx="5.36238532" ry="5.37628866"></ellipse>
                    <ellipse id="Oval-Copy-23" cx="57.4541284" cy="83.7164948" rx="5.36238532" ry="5.37628866"></ellipse>
                    <ellipse id="Oval-Copy-39" cx="57.4541284" cy="188.170103" rx="5.36238532" ry="5.37628866"></ellipse>
                    <ellipse id="Oval-Copy-67" cx="57.4541284" cy="292.623711" rx="5.36238532" ry="5.37628866"></ellipse>
                    <ellipse id="Oval-Copy-3" cx="83.5" cy="5.37628866" rx="5.36238532" ry="5.37628866"></ellipse>
                    <ellipse id="Oval-Copy-40" cx="83.5" cy="109.829897" rx="5.36238532" ry="5.37628866"></ellipse>
                    <ellipse id="Oval-Copy-68" cx="83.5" cy="214.283505" rx="5.36238532" ry="5.37628866"></ellipse>
                    <ellipse id="Oval-Copy-10" cx="83.5" cy="31.4896907" rx="5.36238532" ry="5.37628866"></ellipse>
                    <ellipse id="Oval-Copy-41" cx="83.5" cy="135.943299" rx="5.36238532" ry="5.37628866"></ellipse>
                    <ellipse id="Oval-Copy-69" cx="83.5" cy="240.396907" rx="5.36238532" ry="5.37628866"></ellipse>
                    <ellipse id="Oval-Copy-17" cx="83.5" cy="57.6030928" rx="5.36238532" ry="5.37628866"></ellipse>
                    <ellipse id="Oval-Copy-42" cx="83.5" cy="162.056701" rx="5.36238532" ry="5.37628866"></ellipse>
                    <ellipse id="Oval-Copy-70" cx="83.5" cy="266.510309" rx="5.36238532" ry="5.37628866"></ellipse>
                    <ellipse id="Oval-Copy-24" cx="83.5" cy="83.7164948" rx="5.36238532" ry="5.37628866"></ellipse>
                    <ellipse id="Oval-Copy-43" cx="83.5" cy="188.170103" rx="5.36238532" ry="5.37628866"></ellipse>
                    <ellipse id="Oval-Copy-71" cx="83.5" cy="292.623711" rx="5.36238532" ry="5.37628866"></ellipse>
                    <ellipse id="Oval-Copy-4" cx="109.545872" cy="5.37628866" rx="5.36238532" ry="5.37628866"></ellipse>
                    <ellipse id="Oval-Copy-44" cx="109.545872" cy="109.829897" rx="5.36238532" ry="5.37628866"></ellipse>
                    <ellipse id="Oval-Copy-72" cx="109.545872" cy="214.283505" rx="5.36238532" ry="5.37628866"></ellipse>
                    <ellipse id="Oval-Copy-11" cx="109.545872" cy="31.4896907" rx="5.36238532" ry="5.37628866"></ellipse>
                    <ellipse id="Oval-Copy-45" cx="109.545872" cy="135.943299" rx="5.36238532" ry="5.37628866"></ellipse>
                    <ellipse id="Oval-Copy-73" cx="109.545872" cy="240.396907" rx="5.36238532" ry="5.37628866"></ellipse>
                    <ellipse id="Oval-Copy-18" cx="109.545872" cy="57.6030928" rx="5.36238532" ry="5.37628866"></ellipse>
                    <ellipse id="Oval-Copy-46" cx="109.545872" cy="162.056701" rx="5.36238532" ry="5.37628866"></ellipse>
                    <ellipse id="Oval-Copy-74" cx="109.545872" cy="266.510309" rx="5.36238532" ry="5.37628866"></ellipse>
                    <ellipse id="Oval-Copy-25" cx="109.545872" cy="83.7164948" rx="5.36238532" ry="5.37628866"></ellipse>
                    <ellipse id="Oval-Copy-47" cx="109.545872" cy="188.170103" rx="5.36238532" ry="5.37628866"></ellipse>
                    <ellipse id="Oval-Copy-75" cx="109.545872" cy="292.623711" rx="5.36238532" ry="5.37628866"></ellipse>
                    <ellipse id="Oval-Copy-5" cx="135.591743" cy="5.37628866" rx="5.36238532" ry="5.37628866"></ellipse>
                    <ellipse id="Oval-Copy-48" cx="135.591743" cy="109.829897" rx="5.36238532" ry="5.37628866"></ellipse>
                    <ellipse id="Oval-Copy-76" cx="135.591743" cy="214.283505" rx="5.36238532" ry="5.37628866"></ellipse>
                    <ellipse id="Oval-Copy-12" cx="135.591743" cy="31.4896907" rx="5.36238532" ry="5.37628866"></ellipse>
                    <ellipse id="Oval-Copy-49" cx="135.591743" cy="135.943299" rx="5.36238532" ry="5.37628866"></ellipse>
                    <ellipse id="Oval-Copy-77" cx="135.591743" cy="240.396907" rx="5.36238532" ry="5.37628866"></ellipse>
                    <ellipse id="Oval-Copy-19" cx="135.591743" cy="57.6030928" rx="5.36238532" ry="5.37628866"></ellipse>
                    <ellipse id="Oval-Copy-50" cx="135.591743" cy="162.056701" rx="5.36238532" ry="5.37628866"></ellipse>
                    <ellipse id="Oval-Copy-78" cx="135.591743" cy="266.510309" rx="5.36238532" ry="5.37628866"></ellipse>
                    <ellipse id="Oval-Copy-26" cx="135.591743" cy="83.7164948" rx="5.36238532" ry="5.37628866"></ellipse>
                    <ellipse id="Oval-Copy-51" cx="135.591743" cy="188.170103" rx="5.36238532" ry="5.37628866"></ellipse>
                    <ellipse id="Oval-Copy-79" cx="135.591743" cy="292.623711" rx="5.36238532" ry="5.37628866"></ellipse>
                    <ellipse id="Oval-Copy-6" cx="161.637615" cy="5.37628866" rx="5.36238532" ry="5.37628866"></ellipse>
                    <ellipse id="Oval-Copy-52" cx="161.637615" cy="109.829897" rx="5.36238532" ry="5.37628866"></ellipse>
                    <ellipse id="Oval-Copy-80" cx="161.637615" cy="214.283505" rx="5.36238532" ry="5.37628866"></ellipse>
                    <ellipse id="Oval-Copy-13" cx="161.637615" cy="31.4896907" rx="5.36238532" ry="5.37628866"></ellipse>
                    <ellipse id="Oval-Copy-53" cx="161.637615" cy="135.943299" rx="5.36238532" ry="5.37628866"></ellipse>
                    <ellipse id="Oval-Copy-81" cx="161.637615" cy="240.396907" rx="5.36238532" ry="5.37628866"></ellipse>
                    <ellipse id="Oval-Copy-20" cx="161.637615" cy="57.6030928" rx="5.36238532" ry="5.37628866"></ellipse>
                    <ellipse id="Oval-Copy-54" cx="161.637615" cy="162.056701" rx="5.36238532" ry="5.37628866"></ellipse>
                    <ellipse id="Oval-Copy-82" cx="161.637615" cy="266.510309" rx="5.36238532" ry="5.37628866"></ellipse>
                    <ellipse id="Oval-Copy-27" cx="161.637615" cy="83.7164948" rx="5.36238532" ry="5.37628866"></ellipse>
                    <ellipse id="Oval-Copy-55" cx="161.637615" cy="188.170103" rx="5.36238532" ry="5.37628866"></ellipse>
                    <ellipse id="Oval-Copy-83" cx="161.637615" cy="292.623711" rx="5.36238532" ry="5.37628866"></ellipse>
                </g>
            </g>
        </g>
    </g>
</svg>