<?xml version="1.0" encoding="UTF-8"?>
<svg width="26px" height="26px" viewBox="0 0 26 26" version="1.1" xmlns="http://www.w3.org/2000/svg" xmlns:xlink="http://www.w3.org/1999/xlink">
    <!-- Generator: Sketch 62 (91390) - https://sketch.com -->
    <title>globe</title>
    <desc>Created with Sketch.</desc>
    <g id="Page-1" stroke="none" stroke-width="1" fill="none" fill-rule="evenodd">
        <g id="home" transform="translate(-653.000000, -608.000000)" fill="#FFFFFF" fill-rule="nonzero">
            <g id="globe" transform="translate(666.309311, 621.309311) rotate(-15.000000) translate(-666.309311, -621.309311) translate(653.809311, 608.809311)">
                <path d="M12.5,0 C5.60741426,0 0,5.60741426 0,12.5 C0,19.3925857 5.60741426,25 12.5,25 C19.3925857,25 25,19.3925857 25,12.5 C25,5.60741426 19.3925857,0 12.5,0 Z M11.7675781,6.13555908 C10.6533051,6.08768462 9.55028535,5.93109131 8.49704741,5.67646025 C8.66527559,5.27782441 8.84780884,4.89501953 9.04464722,4.5322418 C9.85221865,3.04412842 10.8436584,1.99985503 11.7675781,1.62162783 L11.7675781,6.13555908 Z M11.7675781,7.60154727 L11.7675781,11.7675781 L7.19280244,11.7675781 C7.2572708,10.1415634 7.53440859,8.52737427 7.99274443,7.05909727 C9.20734404,7.36503604 10.4824066,7.55023955 11.7675781,7.60154727 Z M11.7675781,13.2324219 L11.7675781,17.3984527 C10.4824066,17.4497604 9.20734404,17.634964 7.99274443,17.9409027 C7.53440859,16.4726257 7.2572708,14.8584366 7.19280244,13.2324219 L11.7675781,13.2324219 Z M11.7675781,18.8644409 L11.7675781,23.3783722 C10.8436584,23.000145 9.85221865,21.9558716 9.04464722,20.4677582 C8.84780884,20.1049805 8.66527559,19.7221756 8.49704741,19.3235397 C9.55028535,19.0689087 10.6531143,18.9123154 11.7675781,18.8644409 Z M13.2324219,18.8644409 C14.3466949,18.9123154 15.4497146,19.0689087 16.5029526,19.3235397 C16.3347244,19.7221756 16.1521912,20.1049805 15.9553528,20.4677582 C15.1477813,21.9558716 14.1563416,23.000145 13.2324219,23.3783722 L13.2324219,18.8644409 Z M13.2324219,17.3984527 L13.2324219,13.2324219 L17.8071976,13.2324219 C17.7427292,14.8584366 17.4655914,16.4726257 17.0072556,17.9409027 C15.792656,17.634964 14.5175934,17.4497604 13.2324219,17.3984527 Z M13.2324219,11.7675781 L13.2324219,7.60154727 C14.5175934,7.55023955 15.792656,7.36503604 17.0072556,7.05909727 C17.4655914,8.52737427 17.7427292,10.1415634 17.8071976,11.7675781 L13.2324219,11.7675781 Z M13.2324219,6.13555908 L13.2324219,1.62162783 C14.1563416,1.99985503 15.1477813,3.04412842 15.9553528,4.5322418 C16.1521912,4.89501953 16.3347244,5.27782441 16.5029526,5.67646025 C15.4497146,5.93109131 14.3466949,6.08768462 13.2324219,6.13555908 Z M17.2428131,3.83358003 C16.87603,3.15761567 16.4775849,2.56175996 16.0575867,2.05345156 C17.5220489,2.55355835 18.8486099,3.35369111 19.9642182,4.37984468 C19.3279267,4.72068789 18.6422348,5.0167084 17.9208755,5.2640915 C17.716217,4.76703643 17.4900055,4.28886416 17.2428131,3.83358003 L17.2428131,3.83358003 Z M7.75718691,3.83358003 C7.50999453,4.28886416 7.28378296,4.76703643 7.07912446,5.2640915 C6.35776519,5.0167084 5.67207334,4.72049712 5.03578184,4.37984468 C6.15139009,3.35369111 7.47795107,2.55355835 8.94241333,2.05345156 C8.52241514,2.56175996 8.12416074,3.1574249 7.75718691,3.83358003 Z M6.58359526,6.64081572 C6.0836792,8.24012754 5.78975679,9.98363496 5.72643281,11.7675781 L1.48983003,11.7675781 C1.64661406,9.38701631 2.56080625,7.20996855 3.99436953,5.47695161 C4.78992461,5.9331894 5.66120146,6.32343291 6.58359526,6.64081572 Z M5.72643281,13.2324219 C5.78975679,15.0165558 6.0836792,16.7598725 6.58359526,18.3591843 C5.66120146,18.6765671 4.78992461,19.0668106 3.99436953,19.5230484 C2.56080625,17.7900314 1.64661406,15.6129837 1.48983003,13.2324219 L5.72643281,13.2324219 Z M7.07912446,19.7359085 C7.28378296,20.2329636 7.50999453,20.7111358 7.75718691,21.16642 C8.12416074,21.8423843 8.52241514,22.43824 8.94241333,22.9465484 C7.47795107,22.4464417 6.15139009,21.6463089 5.03597261,20.6201553 C5.67188262,20.2795029 6.35776519,19.9832916 7.07912446,19.7359085 Z M17.2428131,21.16642 C17.4900055,20.7111358 17.716217,20.2329636 17.9208755,19.7359085 C18.6422348,19.9832916 19.3279267,20.2795029 19.9642182,20.6201553 C18.8486099,21.6463089 17.5220489,22.4464417 16.0575867,22.9465484 C16.4775849,22.43824 16.8758393,21.8425751 17.2428131,21.16642 L17.2428131,21.16642 Z M18.4164047,18.3591843 C18.9163208,16.7598725 19.2102432,15.016365 19.2735672,13.2324219 L23.51017,13.2324219 C23.3533859,15.6129837 22.4391938,17.7900314 21.0056305,19.5230484 C20.2100754,19.0668106 19.3387985,18.6765671 18.4164047,18.3591843 L18.4164047,18.3591843 Z M19.2735672,11.7675781 C19.2102432,9.98344424 18.9163208,8.24012754 18.4164047,6.64081572 C19.3387985,6.32343291 20.2100754,5.9331894 21.0056305,5.47695161 C22.4391938,7.20996855 23.3533859,9.38701631 23.51017,11.7675781 L19.2735672,11.7675781 Z" id="Shape"></path>
            </g>
        </g>
    </g>
</svg>